<svg id="Layer_1" data-name="Layer 1" xmlns="http://www.w3.org/2000/svg" viewBox="0 0 800.11 753.95"><title>discoball</title><path d="M721.64,392.05C725.42,577.61,573.16,754.32,360.47,754,151.86,753.58.88,582.13,0,394.71-.91,196.41,161.58,34.44,353.78,32.29,577.11,29.79,724.91,212.92,721.64,392.05Zm-460.22,2.64h-.34V346.23c0-7.09-3.72-11.25-10.87-12a34.12,34.12,0,0,0-7-.12c-24,2.36-48,4.71-72,7.32-2.42.27-4.88,2-6.93,3.51-4.9,3.69-5.6,9.27-5.62,14.84q-.14,33.48,0,66.94a73,73,0,0,0,1,11.43c1.32,8.07,4.46,11.59,12.62,12.49,25.14,2.77,50.32,5.24,75.5,7.59,6.45.6,13.59-6.63,13.59-13Q261.41,419.93,261.42,394.69ZM362,496.31V496c-3.83,0-7.67-.08-11.5,0-13.81.32-27.64.33-41.42,1.2-8.07.5-9.83,3-9.63,10.92.24,9.15.55,18.33,1.35,27.45,1.38,15.59,2.8,31.19,4.91,46.7,1.51,11.12,5.33,15,16.26,15.27q38.7.84,77.42.06c11.7-.25,15.55-4,16.83-15.74q3.79-35,6.07-70.16c.77-12.09-2.7-15.16-14.8-15.33-15.18-.22-30.35,0-45.51,0Zm-1.61-201v.26c6.17,0,12.34.09,18.5,0,10.82-.21,21.67-.17,32.46-.93,9.26-.65,11.86-4.08,11.48-13.31-.36-8.49-.61-17-1.38-25.45q-2.19-24.13-5-48.2c-.94-8.07-4.9-12.19-12.89-12.66-18.44-1.09-36.92-1.9-55.39-2.24a228.28,228.28,0,0,0-27.91,1.57c-8.26.87-12.91,4.88-13.63,11.64-2.57,24.35-5.11,48.7-7.12,73.1-1,11.75,3.17,16,14.89,16.17,15.32.29,30.65.08,46,.08Zm101.9,103.51h.11v48.47c0,5.59,2.58,8.82,8.1,9.94a22.26,22.26,0,0,0,6.46.44c24.36-2.19,48.73-4.4,73.08-6.81,6.85-.68,11.42-5.45,12.54-12.27a46.54,46.54,0,0,0,.73-7.45q.09-35,0-70a36.69,36.69,0,0,0-.91-8.42c-1.44-6-5-10.68-11.22-11.33q-38.73-4-77.55-7.21c-7.66-.62-11.06,2.57-11.2,10.15C462.08,362.52,462.31,380.67,462.31,398.82Zm73.37,88.71c-11.43.94-22.06,1.68-32.66,2.74s-21.47,2.51-32.22,3.68c-6.19.67-9.47,4.29-10.86,10a48.59,48.59,0,0,0-1.44,6.32c-1.72,16.89-3.44,33.77-5,50.67a185.8,185.8,0,0,0-.78,19.45c.16,9.34,3,11.9,12.26,11.43,5.65-.29,11.3-.8,16.89-1.64q21.7-3.3,43.34-7c12.21-2,19.71-9.13,22.27-21.25,1.59-7.49,3.39-14.94,4.5-22.5,2.06-14,3.94-28,5.38-42.06.62-6.07-1.94-8.51-8-9.1C544.54,487.8,539.71,487.73,535.68,487.53Zm1.66-183.35,0-.45c1.33.06,2.66.13,4,.18,14.9.59,18.11-2.53,15.78-17.4-3.14-20.06-7.36-40-10.43-60-1.38-9.07-6.42-13.71-14.62-15.27-22.22-4.23-44.47-8.39-66.8-12-8.59-1.37-12,2.12-11.8,11.06.37,13.64,1.17,27.29,2.28,40.9q1.36,16.92,3.92,33.72c1.34,8.73,4,11.3,12.55,12.28,21.66,2.52,43.37,4.68,65.07,7Zm-177.47-147V158c11.15,0,22.32-.17,33.47.09,4,.1,6.47-.75,6.38-5.22-.21-10.28.31-20.64-.8-30.82-1.26-11.52-9.26-18.9-20.94-19.93a261.19,261.19,0,0,0-30.39-.76c-8.25.25-15.95,3-20.32,10.72a84.47,84.47,0,0,0-10.78,37.56c-.3,5.7,1.19,7.29,6.93,7.41C335.56,157.3,347.72,157.13,359.87,157.13ZM599.42,395.27h-.59v30c0,.83.23,1.65.25,2.48.14,4.88,2.77,7.37,7.5,7.43,8.14.1,16.33.52,24.41-.14,12.65-1,19.35-6.63,20.53-19.11,1.3-13.66,1-27.52.63-41.28-.2-7.63-4.87-13.1-12.16-15.53-8.83-2.93-17.73-5.7-26.77-7.87-9.35-2.25-13.06.16-13.65,9.68C598.86,372.3,599.42,383.8,599.42,395.27Zm-84.21-224c2.85-1.06,8.5-1.63,9.14-3.73,1.21-4,0-8.95-1.15-13.23-.64-2.27-3.15-4.27-5.24-5.83-3.58-2.69-7.25-5.5-11.31-7.27Q476,127.87,445.08,115.15c-6.42-2.63-9.32-.15-8.19,6.73,1.19,7.21,3.11,14.3,4.58,21.47,2.31,11.27,9.13,17.9,20.42,19.71,17.4,2.81,34.84,5.4,53.31,8.24ZM201.49,171l.13.67c20.56-3.19,41.14-6.32,61.68-9.62,8.59-1.38,14.1-6.45,16.23-14.94,1.73-6.94,3.41-13.9,4.9-20.9,3-14.3-1.84-13.75-11.81-9.64-19.55,8.07-38.93,16.55-58.22,25.24-10.09,4.55-15.48,13.87-20.71,23-1.86,3.24,0,5.85,3.81,6.18,1.31.1,2.65,0,4,0ZM91.15,319.13A60.18,60.18,0,0,0,118.51,311c4.75-2.87,8.36-6.79,9.19-12.43,2.93-19.72,5.84-39.45,8.38-59.22.8-6.31-2.18-9.28-8.5-8.32a20.5,20.5,0,0,0-10.22,5.28,34.2,34.2,0,0,0-7.67,10.95c-9.17,21-18.17,42.08-26.78,63.32C80,317.76,81.58,319.29,91.15,319.13Zm541.69,2.1.45-1.34c6,0,8.33-2.76,5.92-8.62-8.22-20-16.89-39.85-25.22-59.83a42.24,42.24,0,0,0-16.67-19.39c-2.72-1.75-6.09-2.5-9.16-3.71-.8,3.39-2.67,6.92-2.25,10.15,2.68,20.31,5.54,40.6,9.18,60.75.76,4.21,4.21,9.58,7.88,11.31C612.49,315,622.83,317.79,632.84,321.23ZM585,553c1.22,2.54,1.85,6.49,4.08,7.9,3.64,2.29,7.83.62,10.73-2.64,2.53-2.85,5.32-5.74,6.88-9.12q16.16-35.07,31.74-70.39c2-4.47.65-6.54-4.32-6a183.37,183.37,0,0,0-24.37,4.41c-8.93,2.17-14.28,8.23-15.72,17.37C591,513.69,588.07,532.91,585,553Zm-447.64,4.9q-5.22-33.21-10.45-66.51a14.42,14.42,0,0,0-10.13-12,185,185,0,0,0-23-6.44c-10.55-2.11-12.88.68-8.61,10.69,7.56,17.75,15.72,35.24,23.63,52.84,4.53,10.09,11.49,18.29,20,25.13,1.69,1.34,4,1.91,6,2.84ZM284.76,664.55c-1.82-7.24-3.49-14.52-5.51-21.7-2.14-7.61-7.3-12.14-15.11-13.5-9-1.56-18-3.2-27.08-4.57-11-1.66-22.07-3.4-33.17-4.41a11.22,11.22,0,0,0-8.47,3.56c-2.55,3.14-.25,6.87,2.34,9.28,3,2.81,6.34,5.64,10,7.31q34.13,15.36,68.54,30.1C282.25,673.13,284.14,671.31,284.76,664.55ZM437,664.19l1.28.44c-.16,5.88,2.43,8.48,7.49,6.24,23.11-10.22,46.21-20.47,68.9-31.59,5.15-2.53,9-8.26,12.73-13,2.55-3.21,1.17-5.5-2.94-6.25a12.5,12.5,0,0,0-4-.14c-21.51,3.24-43.08,6.64-64.58,9.92-4.33.66-7.73,2.85-9.23,6.78C443.23,645.69,440.23,655,437,664.19Z" transform="translate(-0.01 0)"/><path d="M610.42,49.74c3.27,0,5-.13,6.75,0,14.1,1.22,28.2,2.5,42.3,3.76,1.5.14,3,.22,4.47.46,8.54,1.41,15-1.52,20.51-8.29,9.31-11.53,19.12-22.66,28.69-34C715,9.53,716.59,7.24,718.31,5l1.81,1.06c0,2.83.21,5.69,0,8.5-1.26,14.1-2.29,28.24-4.1,42.27-1.15,9,1.06,15.76,8.29,21.44,11.24,8.84,22.11,18.2,33.11,27.39,2.63,2.2,5,4.66,7.55,7l-.48,1.21c-3.65,0-7.34.28-11,0-13.77-1.26-27.54-2.55-41.26-4.19-7.92-.94-14.2.84-19.39,7.34-9.78,12.22-20,24.1-30.09,36.07-1.85,2.19-4,4.12-6,6.17l-1.58-.7c.58-7.18,1.12-14.37,1.76-21.55,1-11.28,1.9-22.58,3.2-33.82.78-6.79-1.35-12-6.52-16.31q-16.92-14.06-33.7-28.25C617,56.13,614.42,53.44,610.42,49.74Z" transform="translate(-0.01 0)"/><path d="M13.09,34.86c7.58.86,15.15,1.85,22.75,2.52,8.62.77,17.29,1.11,25.91,1.89A11.22,11.22,0,0,0,71.85,35c8.49-9.83,16.89-19.74,25.4-29.55A76.93,76.93,0,0,1,102.81,0l1.75.5c0,2.68.2,5.37,0,8q-1.5,18.42-3.36,36.82c-.55,5.29,1.13,9.25,5.22,12.66,10,8.3,19.77,16.87,29.72,25.22a59,59,0,0,0,6.68,4.26L141,90.25c-6.5-.51-13-1-19.5-1.55-8.79-.76-17.58-1.58-26.37-2.39a13.37,13.37,0,0,0-12.36,5q-12.39,15-25.08,29.84c-2.06,2.4-4.68,4.33-7,6.48l-1.23-.8c.3-2.21.72-4.41.89-6.63,1.11-14.45,2.35-28.88,3.06-43.35a11,11,0,0,0-3.3-7.65c-11-9.92-22.37-19.46-33.64-29.1-1.46-1.25-3.1-2.3-4.65-3.44Z" transform="translate(-0.01 0)"/><path d="M769.05,172.21q-1.41,13.35-2.84,26.68c-2.37,22-3.3,18.51,12.91,32.58,5.15,4.48,10.52,8.7,15.74,13.11,1.83,1.55,3.51,3.3,5.26,5-.18.41-.35.82-.52,1.23-5.9-.37-11.79-.73-17.69-1.13-8-.54-15.94-1-23.9-1.7a8.86,8.86,0,0,0-8.29,3.38c-7.36,8.82-14.87,17.52-22.4,26.19-1.66,1.92-3.65,3.55-5.49,5.31l-1.19-.56c.13-2.22.18-4.44.4-6.64,1-10.6,2.14-21.2,3.17-31.8a14,14,0,0,0-5.52-13.11c-7.76-6.29-15.24-12.92-22.81-19.44A28.87,28.87,0,0,1,689.5,204c3.81.19,7.61.33,11.41.58,9.8.64,19.61,1.23,29.4,2.05a11.68,11.68,0,0,0,10.56-4.37c6.33-7.51,12.64-15,19-22.49,2.45-2.85,5.1-5.53,7.66-8.28Z" transform="translate(-0.01 0)"/></svg>